# xmcd
#
# Track frame offsets:
#	150
#	13538
#	26244
#	36983
#	54021
#	65195
#	78608
#	90270
#	107227
#	126816
#	137812
#	157475
#	175098
#	187171
#	199467
#	208664
#	219814
#	231352
#	241860
#	257244
#	278267
#	286612
#	295595
#	318087
#	332296
#
# Disc length: 4549 seconds
#
# Revision: 0
# Processed by: cddbd v1.5.1PL0 Copyright (c) Steve Scherf et al.
# Submitted via: MusicWizard 7.0.2
#
DISCID=6911c319
DTITLE=Various Artist - Westernmelodien
DYEAR=1900
DGENRE=Westernmelodien
TTITLE0=Ennio Morricone - The Good, The Bad and The Ugly
TTITLE1=Los Indios Paraguayos - El Condor Pasa
TTITLE2=Steven Seagal %26 Marly Stuart - Give Me Back My Heart
TTITLE3=Lion Ritchie - Lady
TTITLE4=The Ventures - Riders In The Sky
TTITLE5=Enio Morricone - The Man With The Harmonica
TTITLE6=S. Buono - Ode To 10-33
TTITLE7=The Shadows - Apache
TTITLE8=Fire In The Kitchen - My Bonnie
TTITLE9=The Ventures - Scat In The Dark
TTITLE10=R %26 R - Redneck Rampage
TTITLE11=Los Lobos - Bucho`s Gracias - Navajas Attack
TTITLE12=Dolly Parton - If You Need Me
TTITLE13=Enio Morricone - For A Few Dollars More
TTITLE14=Steve Howe - Cactus Boogie
TTITLE15=Alan Jackson - Chattahoochee
TTITLE16=The Ventures - Expo Seven-O
TTITLE17=Garth Brooks - Against The Grain
TTITLE18=Stealers Wheel - Stuck In The Middle With You
TTITLE19=Neil Young - Dead Man
TTITLE20=The Ventures - El Cumbanchero
TTITLE21=Johnny Cash - Wreck Of The Old `97
TTITLE22=Geordie - House Of The Rising Sun
TTITLE23=Dire Straits - Iron Hand
TTITLE24=Ennio Morricone - Chi Mai
EXTD=
EXTT0=
EXTT1=
EXTT2=
EXTT3=
EXTT4=
EXTT5=
EXTT6=
EXTT7=
EXTT8=
EXTT9=
EXTT10=
EXTT11=
EXTT12=
EXTT13=
EXTT14=
EXTT15=
EXTT16=
EXTT17=
EXTT18=
EXTT19=
EXTT20=
EXTT21=
EXTT22=
EXTT23=
EXTT24=
PLAYORDER=
